{
    "asset" : {
        "generator" : "Khronos glTF Blender I/O v3.3.32",
        "version" : "2.0"
    },
    "scene" : 0,
    "scenes" : [
        {
            "name" : "Scene",
            "nodes" : [
                0
            ]
        }
    ],
    "nodes" : [
        {
            "mesh" : 0,
            "name" : "Icosphere"
        }
    ],
    "materials" : [
        {
            "doubleSided" : true,
            "name" : "White",
            "pbrMetallicRoughness" : {}
        },
        {
            "doubleSided" : true,
            "name" : "Black",
            "pbrMetallicRoughness" : {}
        }
    ],
    "meshes" : [
        {
            "name" : "Icosphere.003",
            "primitives" : [
                {
                    "attributes" : {
                        "POSITION" : 0,
                        "NORMAL" : 1
                    },
                    "indices" : 2,
                    "material" : 0
                },
                {
                    "attributes" : {
                        "POSITION" : 3,
                        "NORMAL" : 4
                    },
                    "indices" : 5,
                    "material" : 1
                }
            ]
        }
    ],
    "accessors" : [
        {
            "bufferView" : 0,
            "componentType" : 5126,
            "count" : 3295,
            "max" : [
                1.0153290033340454,
                0.9750001430511475,
                1.0158114433288574
            ],
            "min" : [
                -1.015329122543335,
                -0.9749998450279236,
                -1.0158114433288574
            ],
            "type" : "VEC3"
        },
        {
            "bufferView" : 1,
            "componentType" : 5126,
            "count" : 3295,
            "type" : "VEC3"
        },
        {
            "bufferView" : 2,
            "componentType" : 5123,
            "count" : 18930,
            "type" : "SCALAR"
        },
        {
            "bufferView" : 3,
            "componentType" : 5126,
            "count" : 1487,
            "max" : [
                0.994084894657135,
                1.0163180828094482,
                0.9774799942970276
            ],
            "min" : [
                -0.9875257015228271,
                -1.0163180828094482,
                -0.9774799942970276
            ],
            "type" : "VEC3"
        },
        {
            "bufferView" : 4,
            "componentType" : 5126,
            "count" : 1487,
            "type" : "VEC3"
        },
        {
            "bufferView" : 5,
            "componentType" : 5123,
            "count" : 7950,
            "type" : "SCALAR"
        }
    ],
    "bufferViews" : [
        {
            "buffer" : 0,
            "byteLength" : 39540,
            "byteOffset" : 0,
            "target" : 34962
        },
        {
            "buffer" : 0,
            "byteLength" : 39540,
            "byteOffset" : 39540,
            "target" : 34962
        },
        {
            "buffer" : 0,
            "byteLength" : 37860,
            "byteOffset" : 79080,
            "target" : 34963
        },
        {
            "buffer" : 0,
            "byteLength" : 17844,
            "byteOffset" : 116940,
            "target" : 34962
        },
        {
            "buffer" : 0,
            "byteLength" : 17844,
            "byteOffset" : 134784,
            "target" : 34962
        },
        {
            "buffer" : 0,
            "byteLength" : 15900,
            "byteOffset" : 152628,
            "target" : 34963
        }
    ],
    "buffers" : [
        {
            "byteLength" : 168528,
            "uri" : "data:application/octet-stream;base64,"
        }
    ]
}
